{"title":"House of 1000 Corpses 2003 DVDRip Xvid BigPerm LKRG","uid":5699058,"size":975424168,"categoryP":"video","categoryS":"movies","magnet":"?xt=urn:btih:4524d95254a22323cdd29d0877e7f5cd35832f12&amp;dn=House+of+1000+Corpses+2003+DVDRip+Xvid+BigPerm+LKRG&amp;tr=udp%3A%2F%2Ftracker.openbittorrent.com%3A80&amp;tr=udp%3A%2F%2Fopen.demonii.com%3A1337&amp;tr=udp%3A%2F%2Ftracker.coppersurfer.tk%3A6969&amp;tr=udp%3A%2F%2Fexodus.desync.com%3A6969","seeders":1,"leechers":0,"uploader":null,"files":2,"time":1279422423,"description":"House of 1000 Corpses 2003 DVDRip Xvid BigPerm LKRG\n\nPlot:\n\nTwo teenage couples traveling across the backwoods of Texas searching for urban legends of serial killers end up as prisoners of a bizarre and sadistic backwater family of serial killers.\n\n\nCast:\n\nChad Bannon......................Killer Karl\nWilliam Bassett..................Sheriff Huston\nKaren Black......................Mother Firefly\nErin Daniels.....................Denise Willis\nJoe Dobbs III....................Gerry Ober\nJudith Drake.....................Skunk Ape Wife\nDennis Fimple....................Grampa Hugo\nGregg Gibbs......................Dr. Wolfenstein\nWalton Goggins...................Steve Naish\nSid Haig.........................Captain Spaulding\nChris Hardwick...................Jerry Goldsmith\nKen Johnson......................Skunk Ape Husband\nJennifer Jostyn..................Mary Knowles\nIrwin Keyes......................Ravelli\nMatthew McGrory..................Tiny\n\n\n\nGeneral:\n\nComplete name : House of 1000 Corpses 2003 DVDRip Xvid BigPerm LKRG\\Hof1000CLKRG.avi\nFormat : AVI\nFormat/Info : Audio Video Interleave\nFile size : 930 MiB\nDuration : 1h 29mn\nOverall bit rate : 1 461 Kbps\n\nVideo:\n\nID : 0\nFormat : MPEG-4 Visual\nFormat profile : Advanced Simple@L5\nFormat settings, BVOP : Yes\nFormat settings, QPel : No\nFormat settings, GMC : No warppoints\nFormat settings, Matrix : Default (H.263)\nCodec ID : XVID\nCodec ID/Hint : XviD\nDuration : 1h 29mn\nBit rate : 1 008 Kbps\nWidth : 720 pixels\nHeight : 404 pixels\nDisplay aspect ratio : 16:9\nFrame rate : 23.976 fps\nResolution : 8 bits\nColorimetry : 4:2:0\nScan type : Progressive\nBits/(Pixel*Frame) : 0.145\nStream size : 642 MiB (69%)\nWriting library : XviD 1.2.1 (UTC 2008-12-04)\n\nAudio:\n\nID : 1\nFormat : AC-3\nFormat/Info : Audio Coding 3\nCodec ID : 2000\nDuration : 1h 29mn\nBit rate mode : Constant\nBit rate : 448 Kbps\nChannel(s) : 6 channels\nChannel positions : Front: L C R, Side: L R, LFE\nSampling rate : 48.0 KHz\nResolution : 16 bits\nVideo delay : 42ms\nStream size : 285 MiB (31%)\nAlignment : Split accross interleaves\nLanguage : English","torrent":{"xt":"urn:btih:4524d95254a22323cdd29d0877e7f5cd35832f12","amp;dn":"House+of+1000+Corpses+2003+DVDRip+Xvid+BigPerm+LKRG","amp;tr":["udp%3A%2F%2Ftracker.openbittorrent.com%3A80","udp%3A%2F%2Fopen.demonii.com%3A1337","udp%3A%2F%2Ftracker.coppersurfer.tk%3A6969","udp%3A%2F%2Fexodus.desync.com%3A6969"],"infoHash":"4524d95254a22323cdd29d0877e7f5cd35832f12","infoHashBuffer":{"type":"Buffer","data":[69,36,217,82,84,162,35,35,205,210,157,8,119,231,245,205,53,131,47,18]},"announce":[],"urlList":[]}}